<svg width="130" height="130" viewBox="0 0 130 130" fill="none" xmlns="http://www.w3.org/2000/svg">
<path d="M64.4944 107.683C62.0633 107.683 60.0923 109.654 60.0923 112.085V124.601C60.0923 127.032 62.0633 129.003 64.4944 129.003C66.9261 129.003 68.8965 127.032 68.8965 124.601V112.085C68.8965 109.653 66.9255 107.683 64.4944 107.683Z" fill="#EAEAEA"/>
<path d="M64.4944 21.3245C66.9261 21.3245 68.8965 19.3536 68.8965 16.9224V4.40516C68.8965 1.97402 66.9261 0.00305176 64.4944 0.00305176C62.0633 0.00305176 60.0923 1.97402 60.0923 4.40516V16.9224C60.0923 19.3536 62.0633 21.3245 64.4944 21.3245Z" fill="#EAEAEA"/>
<path d="M27.7444 95.0334L18.8908 103.882C17.1711 105.601 17.1705 108.388 18.8891 110.107C19.749 110.967 20.8759 111.398 22.0028 111.398C23.1292 111.398 24.255 110.968 25.1148 110.109L33.9684 101.26C35.6881 99.5417 35.6887 96.7543 33.9701 95.0352C32.2504 93.3154 29.4635 93.3154 27.7444 95.0334Z" fill="#EAEAEA"/>
<path d="M98.1423 35.2575C99.2687 35.2575 100.395 34.8279 101.255 33.9686L110.107 25.1197C111.826 23.4006 111.827 20.6138 110.108 18.894C108.389 17.1742 105.602 17.1736 103.883 18.8934L95.0303 27.7422C93.3112 29.4608 93.3106 32.2482 95.0292 33.9674C95.8885 34.8279 97.0154 35.2575 98.1423 35.2575Z" fill="#EAEAEA"/>
<path d="M21.3203 64.5039C21.3203 62.0728 19.3493 60.1018 16.9182 60.1018H4.40211C1.97097 60.1018 0 62.0728 0 64.5039C0 66.9351 1.97097 68.906 4.40211 68.906H16.9182C19.3493 68.906 21.3203 66.9351 21.3203 64.5039Z" fill="#EAEAEA"/>
<path d="M124.601 60.1018H112.079C109.647 60.1018 107.677 62.0728 107.677 64.5039C107.677 66.9351 109.647 68.906 112.079 68.906H124.601C127.033 68.906 129.003 66.9351 129.003 64.5039C129.003 62.0734 127.033 60.1018 124.601 60.1018Z" fill="#EAEAEA"/>
<path d="M27.7433 33.9686C28.6026 34.8279 29.7295 35.2575 30.8559 35.2575C31.9822 35.2575 33.1092 34.8279 33.9685 33.9686C35.6876 32.2494 35.6876 29.462 33.9685 27.7428L25.1196 18.894C23.4005 17.1748 20.6131 17.1748 18.8945 18.894C17.1753 20.6132 17.1753 23.4006 18.8945 25.1192L27.7433 33.9686Z" fill="#EAEAEA"/>
<path d="M101.26 95.0345C99.5411 93.3154 96.7537 93.3148 95.0345 95.034C93.3148 96.7531 93.3148 99.5405 95.0339 101.259L103.882 110.108C104.741 110.968 105.868 111.397 106.995 111.397C108.121 111.397 109.248 110.968 110.107 110.109C111.827 108.389 111.827 105.602 110.108 103.883L101.26 95.0345Z" fill="#EAEAEA"/>
<path d="M64.4991 30.2396C45.607 30.2396 30.2372 45.6106 30.2372 64.5039C30.2372 83.3966 45.607 98.767 64.4991 98.767C83.3929 98.767 98.7639 83.3966 98.7639 64.5039C98.7639 45.6106 83.3924 30.2396 64.4991 30.2396ZM64.4991 89.9627C50.4616 89.9627 39.0414 78.5419 39.0414 64.5039C39.0414 50.4653 50.4616 39.0438 64.4991 39.0438C78.5383 39.0438 89.9597 50.4653 89.9597 64.5039C89.9597 78.5419 78.5383 89.9627 64.4991 89.9627Z" fill="#EAEAEA"/>
</svg>
