<svg width="118" height="129" viewBox="0 0 118 129" fill="none" xmlns="http://www.w3.org/2000/svg">
<path d="M117.347 98.0472C116.561 96.1515 114.826 94.8185 112.792 94.5479C94.0711 92.0636 77.9608 79.7047 70.7492 62.2935C63.5368 44.8816 66.1883 24.75 77.6695 9.75574C78.9174 8.12684 79.2018 5.956 78.4169 4.06035C77.6319 2.1647 75.8957 0.831694 73.8621 0.561106C71.0527 0.189335 68.1966 0 65.3719 0C56.9032 0 48.6208 1.65189 40.7538 4.91045C24.8374 11.5034 12.4417 23.8991 5.85098 39.8155C-0.738956 55.7296 -0.737423 73.2581 5.85404 89.173C15.8758 113.367 39.2713 129 65.457 129C65.4578 129 65.4578 129 65.4578 129C73.9288 129 82.2235 127.344 90.1127 124.076C100.571 119.743 109.73 112.712 116.599 103.741C117.847 102.113 118.132 99.9428 117.347 98.0472ZM85.7128 113.454C79.2256 116.141 72.411 117.503 65.4578 117.503C43.9387 117.503 24.7124 104.656 16.4767 84.773C11.0596 71.6951 11.0588 57.2911 16.4737 44.2147C21.89 31.1368 32.075 20.951 45.1537 15.5339C50.8445 13.1768 56.7967 11.8423 62.8807 11.5571C53.8654 28.437 52.6926 48.7503 60.125 66.6942C67.5558 84.6351 82.7448 98.1675 101.052 103.73C96.5562 107.811 91.366 111.112 85.7128 113.454Z" fill="#EAEAEA"/>
</svg>
