<svg width="171" height="130" viewBox="0 0 171 130" fill="none" xmlns="http://www.w3.org/2000/svg">
<path d="M88.2455 104.965C86.1688 104.965 84.4861 106.648 84.4861 108.724V119.414C84.4861 121.49 86.1688 123.173 88.2455 123.173C90.3222 123.173 92.0049 121.49 92.0049 119.414V108.724C92.0049 106.648 90.3217 104.965 88.2455 104.965Z" fill="#EAEAEA"/>
<path d="M88.2455 31.2152C90.3222 31.2152 92.0049 29.532 92.0049 27.4558V16.766C92.0049 14.6898 90.3222 13.0066 88.2455 13.0066C86.1688 13.0066 84.4861 14.6898 84.4861 16.766V27.4553C84.4861 29.532 86.1688 31.2152 88.2455 31.2152Z" fill="#EAEAEA"/>
<path d="M125.116 68.0905C125.116 70.1667 126.799 71.85 128.875 71.85H139.564C141.641 71.85 143.324 70.1667 143.324 68.0905C143.324 66.0143 141.641 64.3311 139.564 64.3311H128.875C126.799 64.3311 125.116 66.0138 125.116 68.0905Z" fill="#EAEAEA"/>
<path d="M51.3671 68.0905C51.3671 66.0143 49.6844 64.3311 47.6077 64.3311H36.914C34.8373 64.3311 33.1545 66.0143 33.1545 68.0905C33.1545 70.1667 34.8373 71.85 36.914 71.85H47.6077C49.6839 71.85 51.3671 70.1667 51.3671 68.0905Z" fill="#EAEAEA"/>
<path d="M116.972 43.1135C117.934 43.1135 118.897 42.7466 119.631 42.0122L127.188 34.4553C128.656 32.9871 128.656 30.6067 127.188 29.139C125.719 27.6708 123.339 27.6708 121.871 29.139L114.314 36.6959C112.846 38.1641 112.846 40.5445 114.314 42.0122C115.048 42.7466 116.011 43.1135 116.972 43.1135Z" fill="#EAEAEA"/>
<path d="M56.8467 94.1633L49.2908 101.72C47.8226 103.188 47.8226 105.569 49.2913 107.037C50.0251 107.77 50.9875 108.137 51.9494 108.137C52.9113 108.137 53.8737 107.77 54.6081 107.036L62.164 99.4791C63.6322 98.0109 63.6322 95.6305 62.1635 94.1628C60.6958 92.6946 58.3154 92.6946 56.8467 94.1633Z" fill="#EAEAEA"/>
<path d="M117.501 68.0905C117.501 51.9556 104.375 38.8288 88.2415 38.8288C72.1056 38.8288 58.9788 51.9556 58.9788 68.0905C58.9788 84.2249 72.1056 97.3513 88.2415 97.3513C104.375 97.3513 117.501 84.2249 117.501 68.0905ZM66.4976 68.0905C66.4976 56.1015 76.252 46.3476 88.2415 46.3476C100.23 46.3476 109.982 56.1015 109.982 68.0905C109.982 80.079 100.23 89.8325 88.2415 89.8325C76.252 89.8325 66.4976 80.079 66.4976 68.0905Z" fill="#EAEAEA"/>
<path d="M153.251 94.8686C150.046 88.459 143.278 84.1934 135.857 84.1934C125.659 84.1934 117.279 91.9758 116.55 101.809C109.874 103.022 104.802 108.791 104.802 115.704C104.802 123.494 111.246 129.833 119.167 129.833H153.172C162.984 129.833 170.967 121.99 170.967 112.351C170.967 102.737 163.027 94.9112 153.251 94.8686ZM153.172 122.314H119.167C115.392 122.314 112.32 119.348 112.32 115.703C112.32 112.058 115.392 109.093 119.167 109.093C119.389 109.093 119.651 109.111 119.992 109.15C121.149 109.284 122.308 108.872 123.121 108.034C123.935 107.196 124.312 106.028 124.143 104.872C124.06 104.3 124.018 103.738 124.018 103.201C124.018 96.8656 129.329 91.7117 135.857 91.7117C141.059 91.7117 145.725 95.0891 147.205 99.9252C147.758 101.732 149.566 102.848 151.426 102.532C151.996 102.436 152.584 102.387 153.172 102.387C158.838 102.387 163.448 106.857 163.448 112.35C163.448 117.845 158.838 122.314 153.172 122.314Z" fill="#EAEAEA"/>
<path d="M66.1657 28.9906C66.1657 19.377 58.2263 11.551 48.4503 11.5083C45.2443 5.0988 38.4773 0.833115 31.0553 0.833115C20.8577 0.833115 12.4772 8.6156 11.7484 18.4492C5.0722 19.6618 0 25.4307 0 32.343C0 40.134 6.44414 46.4724 14.366 46.4724H48.3691C58.1822 46.4724 66.1657 38.6298 66.1657 28.9906ZM7.51883 32.343C7.51883 28.6979 10.5905 25.7325 14.366 25.7325C14.5875 25.7325 14.8482 25.751 15.1855 25.7901C16.3444 25.9259 17.5033 25.5144 18.3184 24.6763C19.1324 23.8382 19.5109 22.6693 19.3419 21.5129C19.2587 20.9405 19.2161 20.3781 19.2161 19.8407C19.2161 13.5053 24.5274 8.35144 31.0553 8.35144C36.2573 8.35144 40.9235 11.7289 42.4032 16.5645C42.9556 18.3695 44.7651 19.4848 46.6197 19.172C47.1952 19.0758 47.7837 19.0267 48.3691 19.0267C54.0363 19.0267 58.6469 23.4964 58.6469 28.9906C58.6469 34.4839 54.0363 38.9536 48.3691 38.9536H14.366C10.5905 38.9536 7.51883 35.9881 7.51883 32.343Z" fill="#EAEAEA"/>
</svg>
