<svg width="201" height="130" viewBox="0 0 201 130" fill="none" xmlns="http://www.w3.org/2000/svg">
<path d="M199.726 84.7304C199.055 83.1099 197.571 81.9704 195.832 81.739C179.828 79.6153 166.057 69.0502 159.892 54.1663C153.726 39.2816 155.993 22.0721 165.807 9.2542C166.874 7.86174 167.117 6.00599 166.446 4.38549C165.775 2.76499 164.291 1.62546 162.553 1.3948C152.978 0.122911 143.191 1.40922 134.251 5.11219C117.341 12.1165 105.432 26.6866 101.565 43.8044C93.7316 34.9568 82.1882 29.4813 69.7962 29.4813C46.642 29.4813 27.8047 47.9457 27.8047 70.6413C27.8047 70.7212 27.8047 70.8005 27.8054 70.8804C12.2747 72.0488 0 84.8228 0 100.357C0 116.657 13.5151 129.918 30.1277 129.918H110.95C125.511 129.918 138.197 121.903 144.666 110.137C148.231 110.849 151.821 111.209 155.402 111.209C162.547 111.209 169.656 109.794 176.446 106.982C185.387 103.278 193.216 97.2672 199.088 89.5984C200.154 88.2066 200.398 86.3509 199.726 84.7304ZM110.949 120.089H30.1277C18.9349 120.089 9.82916 111.237 9.82916 100.357C9.82916 89.4759 18.9349 80.6231 30.1277 80.6231C30.8184 80.6231 31.5863 80.6749 32.543 80.7869C34.0613 80.9665 35.5731 80.4265 36.6379 79.3309C37.702 78.2359 38.1968 76.7078 37.9766 75.1961C37.7492 73.6372 37.6339 72.1045 37.6339 70.6413C37.6339 53.3655 52.0618 39.3105 69.7962 39.3105C83.8631 39.3105 96.4942 48.4464 100.568 61.5434C100.62 61.7275 100.684 61.9064 100.757 62.0807C101.612 64.1992 103.836 65.4731 106.124 65.0852C107.71 64.8191 109.333 64.6848 110.949 64.6848C126.636 64.6848 139.397 77.1121 139.397 92.3867C139.397 107.662 126.636 120.089 110.949 120.089ZM172.684 97.9008C164.838 101.15 156.482 102.122 148.247 100.793C148.88 98.0889 149.227 95.2777 149.227 92.3873C149.227 71.6923 132.055 54.8563 110.95 54.8563C110.651 54.8563 110.352 54.8766 110.053 54.8831C110.479 37.1009 121.261 21.1324 138.013 14.1943C142.845 12.1925 147.978 11.051 153.163 10.8007C145.46 25.2292 144.458 42.5908 150.811 57.9282C157.164 73.2637 170.15 84.8326 185.798 89.588C181.954 93.0773 177.517 95.8989 172.684 97.9008Z" fill="#EAEAEA"/>
</svg>
