<svg width="193" height="130" viewBox="0 0 193 130" fill="none" xmlns="http://www.w3.org/2000/svg">
<path d="M143.202 33.8333C142.063 33.8333 140.923 33.8727 139.786 33.9499C136.138 25.1461 130.035 17.3188 122.257 11.5675C112.865 4.62188 101.666 0.95105 89.8708 0.95105C60.1838 0.95105 36.032 24.6188 36.032 53.7114C36.032 53.9931 36.0343 54.2765 36.0397 54.5613C15.9563 55.7919 0 72.2129 0 92.2199C0 113.025 17.254 129.951 38.4622 129.951H143.202C170.234 129.951 192.228 108.392 192.228 81.8922C192.228 55.392 170.234 33.8333 143.202 33.8333ZM143.202 118.371H38.4622C23.6392 118.371 11.5799 106.64 11.5799 92.2199C11.5799 77.7991 23.6392 66.0663 38.4622 66.0663C39.3755 66.0663 40.3922 66.135 41.6637 66.2833C43.4493 66.4925 45.2334 65.8563 46.4863 64.5656C47.74 63.2748 48.3221 61.4753 48.062 59.6951C47.7632 57.6493 47.6119 55.6359 47.6119 53.7106C47.6119 31.004 66.5689 12.5302 89.8708 12.5302C108.415 12.5302 125.065 24.6173 130.361 41.9246C131.212 44.7037 133.986 46.4268 136.857 45.9397C138.939 45.59 141.073 45.4124 143.201 45.4124C163.849 45.4124 180.647 61.7771 180.647 81.8922C180.648 102.007 163.849 118.371 143.202 118.371Z" fill="#EAEAEA"/>
</svg>
