<svg width="148" height="130" viewBox="0 0 148 130" fill="none" xmlns="http://www.w3.org/2000/svg">
<path d="M109.787 25.2605C109.013 25.2605 108.238 25.2839 107.464 25.3305C101.112 10.3243 85.872 0.151978 69.0645 0.151978C46.1528 0.151978 27.5128 18.423 27.5128 40.8808C27.5128 40.9593 27.5128 41.0384 27.5135 41.1175C12.1461 42.2736 0 54.9138 0 70.2851C0 86.415 13.3735 99.537 29.8121 99.537H109.787C130.672 99.537 147.664 82.8773 147.664 62.3991C147.664 41.9209 130.672 25.2605 109.787 25.2605ZM109.787 89.8108H29.8121C18.7366 89.8108 9.72621 81.0513 9.72621 70.2851C9.72621 59.5182 18.7366 50.7581 29.8121 50.7581C30.4955 50.7581 31.2555 50.8093 32.2028 50.9202C33.7052 51.0979 35.2011 50.5629 36.2541 49.4794C37.3078 48.3953 37.7967 46.8832 37.5788 45.3879C37.3538 43.8447 37.2397 42.3281 37.2397 40.8808C37.2397 23.786 51.5165 9.87819 69.0651 9.87819C83.032 9.87819 95.5717 18.9787 99.5581 32.0098C100.273 34.3441 102.608 35.7908 105.013 35.3829C106.582 35.1203 108.188 34.9867 109.787 34.9867C125.309 34.9867 137.937 47.2839 137.937 62.3984C137.937 77.5136 125.309 89.8108 109.787 89.8108Z" fill="#EAEAEA"/>
<path d="M30.8321 106.918L16.9002 120.85C15.001 122.75 15.001 125.829 16.9002 127.728C17.8495 128.677 19.0945 129.152 20.3388 129.152C21.5831 129.152 22.828 128.677 23.7773 127.728L37.7091 113.796C39.6083 111.896 39.6083 108.818 37.7091 106.918C35.8106 105.02 32.7313 105.02 30.8321 106.918Z" fill="#EAEAEA"/>
<path d="M60.5528 106.919L46.6223 120.851C44.7231 122.75 44.7238 125.829 46.623 127.728C47.5729 128.677 48.8172 129.152 50.0615 129.152C51.3058 129.152 52.5508 128.677 53.5007 127.727L67.4312 113.796C69.3304 111.896 69.3298 108.817 67.4306 106.918C65.5307 105.02 62.4514 105.019 60.5528 106.919Z" fill="#EAEAEA"/>
<path d="M90.2733 106.919L76.3428 120.851C74.4436 122.75 74.4442 125.829 76.3434 127.728C77.2934 128.677 78.5377 129.152 79.782 129.152C81.0263 129.152 82.2712 128.677 83.2211 127.727L97.1517 113.796C99.0509 111.896 99.0502 108.817 97.151 106.918C95.2512 105.02 92.1718 105.019 90.2733 106.919Z" fill="#EAEAEA"/>
<path d="M119.995 106.918L106.064 120.85C104.164 122.75 104.164 125.829 106.064 127.728C107.013 128.677 108.258 129.152 109.502 129.152C110.746 129.152 111.991 128.677 112.941 127.728L126.872 113.796C128.772 111.896 128.772 108.818 126.872 106.918C124.974 105.02 121.895 105.02 119.995 106.918Z" fill="#EAEAEA"/>
</svg>
