<svg width="113" height="129" viewBox="0 0 113 129" fill="none" xmlns="http://www.w3.org/2000/svg">
<path d="M110.748 90.7369L97.6458 83.1723L109 76.477C111.095 75.242 111.791 72.5432 110.556 70.449C109.321 68.3548 106.623 67.6592 104.528 68.893L88.888 78.1157L79.6828 72.8015V56.1985L88.8827 50.8866L104.528 60.1087C105.23 60.5225 106 60.7186 106.76 60.7186C108.267 60.7186 109.735 59.9438 110.556 58.551C111.791 56.4568 111.094 53.758 109 52.523L97.6429 45.8289L110.748 38.2625C112.853 37.047 113.574 34.3546 112.359 32.2493C111.144 30.1439 108.45 29.4225 106.346 30.6381L93.2425 38.2033L93.124 25.0198C93.1022 22.5887 91.1095 20.6207 88.6825 20.6576C86.2508 20.6793 84.298 22.6679 84.3197 25.0991L84.4829 43.2598L75.2796 48.5735L60.9017 40.2717V29.6473L76.7117 20.7116C78.8277 19.5154 79.5743 16.8301 78.3781 14.713C77.1819 12.5965 74.4954 11.8499 72.3795 13.0467L60.9017 19.5342V4.40211C60.9017 1.97097 58.9313 0 56.4996 0C54.0679 0 52.0975 1.97097 52.0975 4.40211V19.5342L40.6191 13.0473C38.502 11.8499 35.8161 12.5971 34.6205 14.7136C33.4243 16.8301 34.1703 19.516 36.2869 20.7122L52.0975 29.6479V40.2734L37.7202 48.5741L28.5157 43.2598L28.6788 25.0997C28.7006 22.6685 26.7478 20.6799 24.3161 20.6582C24.302 20.6582 24.2891 20.6582 24.2761 20.6582C21.8638 20.6582 19.8963 22.6028 19.8746 25.021L19.7561 38.2033L6.6548 30.6387C4.54766 29.4225 1.85591 30.1445 0.641517 32.2499C-0.574052 34.3552 0.147307 37.0476 2.25269 38.2631L15.3575 45.8295L3.99886 52.5236C1.90404 53.758 1.20675 56.4568 2.44169 58.5516C3.26224 59.9444 4.7302 60.7192 6.23806 60.7192C6.99758 60.7192 7.76765 60.5225 8.46905 60.1093L24.1165 50.8872L33.3175 56.1997V72.8021L24.1118 78.1175L8.46964 68.8936C6.376 67.6587 3.6778 68.3554 2.44169 70.4496C1.20675 72.5438 1.90404 75.2426 3.99768 76.4776L15.3534 83.1729L2.25269 90.7369C0.147307 91.9524 -0.574052 94.6448 0.641517 96.7501C1.45737 98.1623 2.93648 98.9518 4.45785 98.9518C5.20445 98.9518 5.9622 98.761 6.6548 98.3613L19.7561 90.7973L19.8746 103.981C19.8963 106.398 21.8632 108.344 24.2761 108.344C24.2891 108.344 24.3031 108.344 24.3161 108.343C26.7472 108.321 28.7006 106.333 28.6788 103.902L28.5151 85.7396L37.7196 80.4254L52.0975 88.7272V99.3538L36.2869 108.29C34.1709 109.486 33.4243 112.171 34.6205 114.288C35.4299 115.72 36.9214 116.525 38.4568 116.525C39.1905 116.525 39.9347 116.341 40.6191 115.954L52.0975 109.468V124.598C52.0975 127.03 54.0679 129.001 56.4996 129.001C58.9313 129.001 60.9017 127.03 60.9017 124.598V109.468L72.38 115.954C73.0644 116.341 73.8087 116.525 74.5424 116.525C76.0778 116.525 77.5692 115.72 78.3787 114.288C79.5749 112.171 78.8288 109.486 76.7123 108.29L60.9023 99.3538V88.7277L75.2807 80.4254L84.4841 85.7384L84.3162 103.9C84.2939 106.331 86.2467 108.32 88.6778 108.342C88.6913 108.343 88.7054 108.343 88.7189 108.343C91.1313 108.343 93.0981 106.398 93.1204 103.981L93.2425 90.795L106.346 98.3607C107.04 98.761 107.796 98.9512 108.543 98.9512C110.064 98.9512 111.544 98.1612 112.359 96.7496C113.574 94.6448 112.852 91.9524 110.748 90.7369ZM42.1217 56.1991L56.5008 47.8967L70.8786 56.1991V72.8009L56.5008 81.1033L42.1217 72.8009V56.1991Z" fill="#EAEAEA"/>
</svg>
