<svg width="175" height="130" viewBox="0 0 175 130" fill="none" xmlns="http://www.w3.org/2000/svg">
<path d="M33.5873 29.8391C43.7304 29.8391 53.3584 25.7108 60.3606 18.6733C67.3636 25.7117 76.9907 29.8391 87.1338 29.8391C97.2787 29.8391 106.905 25.7127 113.903 18.676C120.906 25.7127 130.532 29.8391 140.677 29.8391C154.1 29.8391 166.617 22.6108 173.345 10.9763C175.228 7.71908 174.114 3.55177 170.857 1.66885C167.6 -0.212253 163.433 0.899516 161.55 4.15671C157.251 11.5939 149.252 16.2145 140.678 16.2145C132.101 16.2145 124.101 11.5939 119.802 4.15671C118.584 2.05125 116.336 0.753278 113.903 0.754186C111.47 0.754186 109.223 2.05216 108.006 4.15852C103.71 11.5957 95.7128 16.2145 87.1356 16.2145C78.5621 16.2145 70.5617 11.593 66.2564 4.15398C65.0383 2.04943 62.7912 0.753278 60.3606 0.753278H60.3587C57.9272 0.753278 55.68 2.05034 54.4629 4.1558C50.1639 11.593 42.1653 16.2136 33.59 16.2136C25.0138 16.2136 17.0134 11.593 12.7144 4.1558C10.8315 0.899514 6.66416 -0.215886 3.40697 1.66794C0.149782 3.55086 -0.964711 7.71818 0.919118 10.9754C7.64332 22.6108 20.1616 29.8391 33.5873 29.8391Z" fill="#EAEAEA"/>
<path d="M170.855 51.6249C167.598 49.7438 163.431 50.8546 161.548 54.1127C157.249 61.5499 149.25 66.1705 140.676 66.1705C132.099 66.1705 124.099 61.5499 119.8 54.1127C118.582 52.0073 116.334 50.7093 113.902 50.7102C111.468 50.7102 109.221 52.0082 108.004 54.1145C103.708 61.5518 95.7108 66.1705 87.1337 66.1705C78.5602 66.1705 70.5598 61.549 66.2544 54.11C65.0364 52.0054 62.7892 50.7093 60.3586 50.7093H60.3568C57.9252 50.7093 55.6781 52.0064 54.461 54.1118C50.1619 61.549 42.1634 66.1696 33.5881 66.1696C25.0118 66.1696 17.0115 61.549 12.7124 54.1118C10.8295 50.8546 6.66221 49.7401 3.40502 51.624C0.147829 53.5069 -0.966664 57.6742 0.917165 60.9314C7.64409 72.5668 20.1624 79.7951 33.589 79.7951C43.732 79.7951 53.3601 75.6669 60.3622 68.6293C67.3653 75.6678 76.9924 79.7951 87.1355 79.7951C97.2804 79.7951 106.907 75.6687 113.905 68.632C120.907 75.6687 130.534 79.7951 140.678 79.7951C154.101 79.7951 166.619 72.5677 173.347 60.9314C175.226 57.6751 174.112 53.5078 170.855 51.6249Z" fill="#EAEAEA"/>
<path d="M170.855 101.581C167.598 99.6995 163.431 100.811 161.548 104.069C157.249 111.507 149.25 116.127 140.676 116.127C132.099 116.127 124.099 111.507 119.8 104.069C118.582 101.964 116.334 100.666 113.902 100.667C111.468 100.667 109.221 101.965 108.004 104.071C103.708 111.508 95.7108 116.127 87.1337 116.127C78.5602 116.127 70.5598 111.506 66.2544 104.067C65.0364 101.962 62.7892 100.666 60.3586 100.666H60.3568C57.9252 100.666 55.6781 101.963 54.461 104.068C50.1619 111.506 42.1634 116.126 33.5881 116.126C25.0118 116.126 17.0115 111.506 12.7124 104.068C10.8295 100.811 6.66221 99.6977 3.40502 101.581C0.147829 103.464 -0.966664 107.631 0.917165 110.888C7.64409 122.523 20.1624 129.752 33.589 129.752C43.732 129.752 53.3601 125.623 60.3622 118.586C67.3653 125.624 76.9924 129.752 87.1355 129.752C97.2804 129.752 106.907 125.625 113.905 118.589C120.907 125.625 130.534 129.752 140.678 129.752C154.101 129.752 166.619 122.523 173.347 110.888C175.226 107.632 174.112 103.464 170.855 101.581Z" fill="#EAEAEA"/>
</svg>
