<svg width="192" height="129" viewBox="0 0 192 129" fill="none" xmlns="http://www.w3.org/2000/svg">
<path d="M143.032 32.8823C141.895 32.8823 140.756 32.9216 139.62 32.9988C135.977 24.195 129.881 16.3678 122.113 10.6164C112.732 3.67083 101.546 0 89.7643 0C60.1125 0 35.9893 23.6678 35.9893 52.7603C35.9893 53.0421 35.9916 53.3254 35.997 53.6103C15.9374 54.8408 0 71.2619 0 91.2689C0 112.074 17.2336 129 38.4167 129H143.032C170.033 129 192 107.441 192 80.9411C192 54.4409 170.033 32.8823 143.032 32.8823ZM143.032 117.42H38.4167C23.6112 117.42 11.5662 105.689 11.5662 91.2689C11.5662 76.848 23.6112 65.1153 38.4167 65.1153C39.3288 65.1153 40.3444 65.184 41.6143 65.3322C43.3978 65.5414 45.1798 64.9053 46.4312 63.6145C47.6835 62.3238 48.2649 60.5242 48.005 58.744C47.7066 56.6982 47.5555 54.6849 47.5555 52.7595C47.5555 30.0529 66.4901 11.5791 89.7643 11.5791C108.286 11.5791 124.917 23.6662 130.207 40.9735C131.056 43.7527 133.828 45.4758 136.695 44.9887C138.774 44.6389 140.906 44.4614 143.031 44.4614C163.654 44.4614 180.433 60.8261 180.433 80.9411C180.434 101.056 163.655 117.42 143.032 117.42Z" fill="#EAEAEA"/>
</svg>
