<svg width="80" height="57" viewBox="0 0 80 57" fill="none" xmlns="http://www.w3.org/2000/svg">
<path d="M32.1715 0.937364L25.8923 22.7293H20.0394L16.1245 7.50642L12.2097 22.7293H6.31803L0 0.937364H5.50405L9.30262 17.537L13.4113 0.937364H19.1479L23.179 17.4977L26.9776 0.937364H32.1715ZM55.0695 11.3613C55.0695 12.148 55.0178 12.8561 54.9145 13.4854H39.2163C39.3456 15.0589 39.8883 16.2914 40.8443 17.183C41.8003 18.0746 42.9761 18.5204 44.3715 18.5204C46.3871 18.5204 47.8213 17.6419 48.674 15.8849H54.5269C53.9067 17.9828 52.7181 19.7136 50.9609 21.0772C49.2036 22.4146 47.046 23.0833 44.4878 23.0833C42.4205 23.0833 40.56 22.6244 38.9063 21.7066C37.2783 20.7625 35.9992 19.4382 35.0689 17.7337C34.1644 16.0291 33.7123 14.0624 33.7123 11.8333C33.7123 9.57809 34.1644 7.59821 35.0689 5.89366C35.9734 4.1891 37.2395 2.87792 38.8675 1.96009C40.4954 1.04226 42.369 0.583344 44.4878 0.583344C46.5291 0.583344 48.3509 1.02915 49.9531 1.92075C51.5811 2.81236 52.8344 4.08422 53.7129 5.73632C54.6174 7.3622 55.0695 9.23719 55.0695 11.3613ZM49.4492 9.78789C49.4235 8.3718 48.9196 7.24419 47.9375 6.40502C46.9555 5.53964 45.7539 5.10695 44.3328 5.10695C42.9892 5.10695 41.8521 5.52652 40.9218 6.36569C40.0173 7.17861 39.4619 8.31935 39.2551 9.78789H49.4492ZM57.635 11.7547C57.635 9.55187 58.0613 7.59821 58.9141 5.89366C59.7928 4.1891 60.9684 2.87792 62.4413 1.96009C63.9403 1.04226 65.607 0.583344 67.4415 0.583344C69.0437 0.583344 70.4391 0.911139 71.6276 1.56673C72.8422 2.22233 73.8113 3.04838 74.5347 4.04488V0.937364H80V22.7293H74.5347V19.5431C73.837 20.5659 72.868 21.4181 71.6276 22.1C70.4133 22.7555 69.0049 23.0833 67.4027 23.0833C65.594 23.0833 63.9403 22.6113 62.4413 21.6673C60.9684 20.7232 59.7928 19.3989 58.9141 17.6944C58.0613 15.9636 57.635 13.9837 57.635 11.7547ZM74.5347 11.8333C74.5347 10.4959 74.2764 9.3552 73.7595 8.41114C73.2429 7.44087 72.5452 6.70659 71.6664 6.20834C70.7879 5.68386 69.8446 5.42163 68.8369 5.42163C67.8291 5.42163 66.8988 5.67076 66.0461 6.16901C65.1933 6.66725 64.4956 7.40153 63.953 8.37181C63.4364 9.31586 63.1778 10.4435 63.1778 11.7547C63.1778 13.0659 63.4364 14.2197 63.953 15.2162C64.4956 16.1865 65.1933 16.9339 66.0461 17.4583C66.9248 17.9828 67.8551 18.2451 68.8369 18.2451C69.8446 18.2451 70.7879 17.9959 71.6664 17.4977C72.5452 16.9732 73.2429 16.2389 73.7595 15.2949C74.2764 14.3246 74.5347 13.1708 74.5347 11.8333Z" fill="#4971A6"/>
<path d="M8.19796 38.9712V49.4073C8.19796 50.1341 8.36959 50.6665 8.71281 51.0039C9.08245 51.3154 9.68969 51.4712 10.5346 51.4712H13.1088V56.0662H9.62369C4.95046 56.0662 2.61384 53.8335 2.61384 49.3684V38.9712H0V34.493H2.61384V29.1581H8.19796V34.493H13.1088V38.9712H8.19796ZM29.453 34.1815C31.1163 34.1815 32.595 34.545 33.8886 35.2718C35.1825 35.9727 36.1856 37.0241 36.8985 38.426C37.6379 39.802 38.0074 41.4634 38.0074 43.4104V56.0662H32.4629V44.1503C32.4629 42.4369 32.0272 41.126 31.1559 40.2173C30.2847 39.2827 29.0965 38.8154 27.5916 38.8154C26.0604 38.8154 24.8458 39.2827 23.9481 40.2173C23.0769 41.126 22.6412 42.4369 22.6412 44.1503V56.0662H17.0967V27.25H22.6412V37.1799C23.3541 36.2453 24.3046 35.5185 25.4927 34.9992C26.6808 34.4541 28.0009 34.1815 29.453 34.1815ZM63.6759 44.8123C63.6759 45.5911 63.623 46.2921 63.5175 46.9151H47.478C47.6101 48.4727 48.1646 49.693 49.1414 50.5755C50.1182 51.4581 51.3196 51.8995 52.7453 51.8995C54.8047 51.8995 56.27 51.0298 57.1413 49.2905H63.1215C62.4878 51.3674 61.2734 53.0808 59.4779 54.4307C57.6825 55.7547 55.478 56.4167 52.8641 56.4167C50.7518 56.4167 48.8509 55.9625 47.1612 55.0537C45.4978 54.1192 44.1909 52.8082 43.2404 51.1207C42.3162 49.4332 41.8543 47.4862 41.8543 45.2796C41.8543 43.0469 42.3162 41.0871 43.2404 39.3995C44.1646 37.712 45.4582 36.4142 47.1216 35.5055C48.7849 34.5967 50.6992 34.1425 52.8641 34.1425C54.9498 34.1425 56.8112 34.5839 58.4482 35.4665C60.1116 36.3491 61.3922 37.6083 62.2898 39.2438C63.214 40.8534 63.6759 42.7095 63.6759 44.8123ZM57.9334 43.2547C57.9071 41.8528 57.3922 40.7366 56.3889 39.9058C55.3855 39.0491 54.1577 38.6207 52.7057 38.6207C51.3329 38.6207 50.1711 39.036 49.2206 39.8668C48.2964 40.6715 47.7289 41.8008 47.5176 43.2547H57.9334ZM73.2674 37.8419C73.9802 36.6995 74.9044 35.8039 76.0396 35.155C77.2014 34.5061 78.5216 34.1815 80 34.1815V39.9058H78.5347C76.7921 39.9058 75.4722 40.3082 74.5743 41.1129C73.703 41.9176 73.2674 43.3195 73.2674 45.3185V56.0662H67.7229V34.493H73.2674V37.8419Z" fill="#4971A6"/>
</svg>
